<?xml version="1.0" standalone="no"?>
<!DOCTYPE svg PUBLIC "-//W3C//DTD SVG 20010904//EN"
 "http://www.w3.org/TR/2001/REC-SVG-20010904/DTD/svg10.dtd">
<svg version="1.0" xmlns="http://www.w3.org/2000/svg"
 width="80.000000pt" height="80.000000pt" viewBox="0 0 80.000000 80.000000"
 preserveAspectRatio="xMidYMid meet">
<metadata>
Created by potrace 1.11, written by Peter Selinger 2001-2013
</metadata>
<g transform="translate(0.000000,80.000000) scale(0.100000,-0.100000)"
fill="#000000" stroke="none">
<path d="M269 506 c-5 -56 -3 -79 8 -88 6 -5 9 -17 6 -25 -4 -11 -2 -14 5 -9
7 4 12 13 12 19 0 16 47 67 61 67 6 0 9 -7 5 -15 -4 -11 1 -15 18 -15 32 0 56
-30 57 -71 l1 -34 7 30 c4 17 3 38 -2 48 -12 25 -3 31 22 17 12 -6 26 -8 31
-5 14 9 8 76 -7 71 -6 -3 -13 0 -16 7 -2 8 -38 13 -105 15 -88 3 -102 2 -103
-12z m201 -23 c0 -10 -20 -40 -20 -31 0 3 -3 13 -6 22 -4 11 -1 16 10 16 9 0
16 -3 16 -7z m-150 -37 c0 -9 -30 -14 -35 -6 -4 6 3 10 14 10 12 0 21 -2 21
-4z"/>
<path d="M540 460 c0 -5 5 -10 11 -10 5 0 7 5 4 10 -3 6 -8 10 -11 10 -2 0 -4
-4 -4 -10z"/>
<path d="M530 405 c0 -28 -14 -32 -37 -10 -8 9 -18 13 -21 10 -3 -3 4 -12 16
-21 12 -8 22 -22 22 -30 0 -24 -31 -64 -60 -79 -23 -12 -30 -12 -46 0 -18 13
-18 14 9 24 15 6 27 16 27 22 0 7 -9 5 -25 -5 -13 -9 -31 -16 -40 -16 -8 0
-15 -4 -15 -10 0 -6 -28 -10 -65 -10 -36 0 -65 4 -65 10 0 5 -9 14 -19 19 -16
9 -18 8 -14 -9 3 -11 0 -34 -6 -51 -9 -27 -8 -37 11 -68 13 -20 23 -40 23 -44
0 -5 -21 -31 -47 -60 -27 -28 -48 -57 -48 -64 0 -10 58 -13 284 -13 276 0 284
1 279 19 -3 11 -20 37 -38 58 -25 30 -32 45 -28 66 3 15 0 34 -7 42 -9 10 -10
31 -6 64 7 57 -8 138 -31 163 -24 27 -53 23 -53 -7z m44 -112 c-6 -31 -27 -48
-45 -37 -15 9 -10 31 9 39 16 6 16 7 -1 20 -18 13 -18 14 0 24 27 15 45 -7 37
-46z m-296 -52 c3 -8 -1 -12 -9 -9 -7 2 -15 10 -17 17 -3 8 1 12 9 9 7 -2 15
-10 17 -17z m92 -1 c0 -5 -4 -10 -10 -10 -5 0 -10 5 -10 10 0 6 5 10 10 10 6
0 10 -4 10 -10z m10 -30 c-20 -13 -33 -13 -25 0 3 6 14 10 23 10 15 0 15 -2 2
-10z m130 -77 c0 -2 -16 -11 -35 -19 -42 -17 -105 -18 -142 -1 -27 12 -26 12
27 17 72 7 150 8 150 3z"/>
<path d="M316 383 c-11 -11 -6 -23 9 -23 8 0 15 4 15 9 0 13 -16 22 -24 14z"/>
<path d="M240 370 c0 -5 4 -10 9 -10 6 0 13 5 16 10 3 6 -1 10 -9 10 -9 0 -16
-4 -16 -10z"/>
<path d="M286 346 c3 -8 -5 -22 -18 -31 l-23 -17 32 7 c18 3 34 2 38 -4 3 -6
13 -11 22 -11 11 0 8 6 -11 21 -14 11 -26 27 -26 35 0 8 -4 14 -10 14 -5 0 -7
-6 -4 -14z"/>
</g>
</svg>
